<?xml version="1.0" encoding="utf-8"?>
<!-- Generator: Adobe Illustrator 16.0.3, SVG Export Plug-In . SVG Version: 6.00 Build 0)  -->
<!DOCTYPE svg PUBLIC "-//W3C//DTD SVG 1.1//EN" "http://www.w3.org/Graphics/SVG/1.1/DTD/svg11.dtd">
<svg version="1.1" id="Calque_1" xmlns="http://www.w3.org/2000/svg" xmlns:xlink="http://www.w3.org/1999/xlink" x="0px" y="0px"
	 width="368.313px" height="183.711px" viewBox="0 0 368.313 183.711" enable-background="new 0 0 368.313 183.711"
	 xml:space="preserve">
<g>
	<path fill="#FFFFFF" d="M362.814,61.398c0.078,0.006,0.15,0.006,0.209-0.008l-0.215-0.012C349.48,25.666,313.426,0,271.145,0
		c-0.301,0-0.563,0.139-0.744,0.348c-9.926,1.697-18.094,23.32-21.662,56.844c-0.861-0.188-1.705-0.377-2.531-0.563
		c-2.125-0.479-4.133-0.932-6.23-1.297c-0.268-0.055-0.531,0.133-0.578,0.406c-0.047,0.271,0.135,0.531,0.406,0.578
		c2.074,0.361,4.07,0.813,6.182,1.287c0.865,0.195,1.746,0.393,2.648,0.59c-0.313,3.027-0.592,6.141-0.826,9.352
		c-0.041,0.551,0.373,1.031,0.924,1.07c0.576,0.049,1.029-0.373,1.07-0.924c0.227-3.109,0.5-6.133,0.805-9.082
		c5.219,1.063,11.424,1.977,20.527,1.977c2.609,0,5.461-0.074,8.59-0.244c4.563-0.244,9.176-0.885,13.74-1.785
		c0.609,5.672,1.068,11.688,1.354,18.02c-0.705,0.023-1.418,0.041-2.111,0.074c-2.32,0.111-4.551,0.295-6.629,0.547l-1.318,0.16
		v7.459l10.32-0.002c0.025,1.193,0.043,2.395,0.055,3.607L284.76,88.41v9.398c-6.594,1.217-13.482,1.936-20.617,1.973
		c-0.338,0.002-0.668,0-1,0V88.385l-10.9-0.014v11.158c-4.973-0.246-9.199-0.654-12.871-1.137c0.797-0.572,1.514-1.23,2.137-1.967
		c0.814-0.965,1.465-2.066,1.934-3.277c0.375-0.973,0.605-2.043,0.682-3.188l0.107-1.598l-11.104-0.014l-0.045,1.455
		c-0.023,0.768-0.164,1.428-0.418,1.961c-0.287,0.604-0.666,1.092-1.158,1.488c-0.512,0.41-1.127,0.727-1.83,0.938
		c-1.27,0.381-2.756,0.365-4.189,0.299c-0.137-0.006-0.273-0.012-0.41-0.018V88.34l-10.902-0.014v30.693h10.902v-16.238
		c0.414,0.008,0.793,0.068,1.127,0.182c0.391,0.129,0.768,0.314,1.117,0.547c0.383,0.256,0.748,0.557,1.086,0.895
		c0.387,0.389,0.771,0.799,1.121,1.195c0.563,0.678,1.137,1.537,1.707,2.553c0.602,1.07,1.164,2.191,1.674,3.334
		c0.518,1.158,0.992,2.324,1.41,3.469c0.408,1.125,0.732,2.119,0.961,2.959l0.301,1.105h11.492l-0.637-1.963
		c-0.646-1.998-1.334-3.967-2.047-5.852c-0.73-1.936-1.537-3.758-2.395-5.412c-0.877-1.695-1.846-3.23-2.881-4.563
		c-0.492-0.635-1.012-1.217-1.555-1.74c0.17-0.088,0.332-0.188,0.498-0.279c3.977,0.557,8.635,1.037,14.186,1.314v7.697
		c0,1.432,0.135,2.785,0.402,4.021c0.295,1.365,0.855,2.568,1.662,3.574c0.822,1.027,1.941,1.832,3.328,2.393
		c1.34,0.545,2.973,0.809,4.992,0.809h16.055l0.811-9.207h-14.268c-0.596,0-0.922-0.105-1.09-0.195
		c-0.246-0.129-0.426-0.283-0.551-0.469c-0.156-0.23-0.262-0.488-0.322-0.785c-0.078-0.396-0.119-0.801-0.119-1.205v-6.375
		c0.332,0,0.668,0,1.006-0.002c7.131-0.037,14.018-0.748,20.611-1.957v19.264l1.314,0.164c1.762,0.219,3.645,0.402,5.594,0.547
		c0.783,0.059,1.568,0.098,2.354,0.133c-1.32,15.475-3.723,29.24-6.842,39.879c-3.9,0.369-7.938,0.59-12.148,0.59
		c-6.891,0-13.455-0.252-19.703-0.746c-1.428-5.24-2.629-11.334-3.58-18.219c0.152-0.004,0.297-0.006,0.43-0.008
		c-0.15-0.025-0.291-0.035-0.436-0.037c-0.48-3.482-0.9-7.16-1.248-11.039c-0.051-0.549-0.543-0.951-1.086-0.906
		c-0.551,0.051-0.957,0.535-0.906,1.086c1.021,11.369,2.611,21.051,4.705,28.947c-14.064-1.254-26.443-3.785-37.098-7.578
		c-2.35-3.846-4.32-7.979-5.838-12.373c-0.135-0.391-0.563-0.598-0.955-0.463c-0.391,0.135-0.598,0.563-0.463,0.953
		c1.344,3.893,3.037,7.582,5.023,11.059c-11.555-4.408-20.984-10.371-28.223-17.873c-3.438-5.463-5.381-10.184-5.537-13.309
		c-0.027-0.553-0.496-0.99-1.049-0.949c-0.551,0.029-0.977,0.498-0.949,1.049c0.383,7.621,10.469,23.922,26.686,38.012
		c19.824,17.221,43.383,26.705,66.34,26.705c53.578,0,97.168-41.205,97.168-91.855C368.313,81.184,366.371,70.934,362.814,61.398z
		 M360.533,122.707c-3.174,3.744-12.779,14.031-28.957,22.777c8.75-15.359,13.547-33.875,13.547-53.369
		c0-6.473-0.533-12.789-1.541-18.889c8.629-6.066,14.379-11.291,16.51-13.314c4.016,9.93,6.221,20.697,6.221,31.943
		C366.313,102.689,364.271,113.082,360.533,122.707z M359.689,58.914c-1.799,1.73-7.508,7.01-16.295,13.227
		c-1.756-10.014-4.799-19.422-8.904-27.922c6.494-3.137,11.016-5.717,12.494-6.58C352.184,44.105,356.48,51.252,359.689,58.914z
		 M346.346,36.854c-1.576,0.918-5.998,3.428-12.295,6.471c-8.699-17.561-21.941-31.148-37.623-38.1
		C316.488,10.449,333.912,21.732,346.346,36.854z M284.545,2.895c20.246,4.406,37.598,19.75,48.158,41.072
		c-9.666,4.59-23.209,10.143-37.408,13.197c-1.234-10.955-3.063-21.039-5.426-29.713c-3.537-12.99-7.998-21.646-12.898-25.277
		C279.523,2.318,282.049,2.561,284.545,2.895z M279.67,59.344c-13.99,0.752-22.285-0.371-28.961-1.734
		c3.541-33.072,11.811-55.381,20.957-55.381c8.713,0,17.895,21.232,21.688,55.332C288.807,58.461,284.211,59.1,279.67,59.344z
		 M319.109,84.809l-2.707-2.584l-0.164-0.164c-0.127-0.129-0.256-0.256-0.398-0.381c-1.969-1.709-4.359-3.018-7.102-3.895
		c-2.691-0.861-5.719-1.299-9-1.299c-0.984,0-1.961,0.016-2.934,0.035c-0.291-6.313-0.762-12.457-1.404-18.357
		c14.332-3.074,27.998-8.676,37.742-13.303c4.139,8.574,7.186,18.09,8.895,28.23c-7.287,5.051-16.52,10.617-27.277,15.354
		l-6.65-0.008l1.184,2.211c0.01,0.021,0.018,0.041,0.029,0.061c-3.893,1.531-7.959,2.936-12.18,4.16
		c0.008-1.043,0.016-2.09,0.016-3.143c0-2.32-0.031-4.621-0.078-6.912L319.109,84.809z M310.068,92.443
		c0.514,1.566,0.773,3.389,0.773,5.416c0,1.965-0.268,3.742-0.793,5.277c-0.51,1.48-1.27,2.744-2.256,3.758
		c-0.984,1.012-2.232,1.803-3.711,2.346c-1.518,0.563-3.328,0.846-5.383,0.846c-0.672,0-1.346-0.018-2.023-0.047
		c0.244-4.586,0.398-9.305,0.455-14.129c4.379-1.262,8.592-2.713,12.621-4.303C309.869,91.887,309.977,92.164,310.068,92.443z
		 M296.068,118.992c0.484,0.008,0.973,0.027,1.455,0.027c3.555,0,6.852-0.438,9.797-1.301c3.016-0.883,5.646-2.26,7.82-4.098
		c2.193-1.852,3.918-4.221,5.127-7.039c1.195-2.791,1.803-6.115,1.803-9.881c0-2.594-0.373-5.025-1.109-7.227l-0.344-1.023
		l-3.438-0.004c9.773-4.473,18.23-9.58,25.039-14.27c0.918,5.799,1.404,11.797,1.404,17.938c0,20.111-5.168,39.154-14.549,54.672
		c-10.613,5.4-23.834,10.006-39.699,11.799C292.467,147.934,294.797,134.379,296.068,118.992z M277.121,181.529
		c4.58-3.299,8.674-11.008,11.947-21.908c15.449-1.693,28.445-6.025,38.99-11.201c-3.461,5.459-7.453,10.461-11.941,14.883
		c-9.348,9.211-20.053,15.137-31.451,17.498C282.18,181.137,279.664,181.379,277.121,181.529z M275.031,160.4
		c4.098,0,8.033-0.205,11.838-0.555c-4.045,13.328-9.238,21.479-14.818,21.479c-6.809,0-12.457-7.635-16.438-21.645
		C261.791,160.158,268.266,160.4,275.031,160.4z M253.477,159.492c3.145,11.385,7.385,18.863,12.547,22.057
		c-0.154-0.01-0.313-0.014-0.467-0.023c-20.438-2.232-38.063-12.971-48.586-29.238C227.555,155.881,239.76,158.289,253.477,159.492z
		 M188.521,136.428c3.857,3.492,10.002,8.148,19.504,12.385c2.15,0.959,4.383,1.859,6.697,2.699
		c6.994,11.537,17.389,20.514,29.822,25.977c-17.361-5.529-30.732-15.307-38.428-21.992
		C198.879,149.207,192.916,142.525,188.521,136.428z M297.135,178.305c7.137-3.205,13.879-7.867,20.035-13.934
		c5.141-5.066,9.643-10.877,13.451-17.258c14.619-7.639,24.191-16.668,28.76-21.605
		C348.439,150.994,325.461,170.703,297.135,178.305z"/>
	<path fill="#FFFFFF" d="M24.098,38.076c-0.332,1.242-0.67,2.473-1.014,3.693c-1.082,3.818-2.234,7.555-3.445,11.154
		c-1.283-3.621-2.512-7.396-3.668-11.27c-0.354-1.193-0.695-2.389-1.029-3.592l-0.305-1.098H3.297l0.576,1.928
		c0.82,2.75,1.584,5.184,2.336,7.436c2.213,6.645,4.715,13.264,7.438,19.674l0.389,0.914h10.166l0.385-0.924
		c1.324-3.184,2.602-6.457,3.797-9.725c1.199-3.283,2.359-6.645,3.449-9.99c0.723-2.227,1.445-4.574,2.275-7.389l0.566-1.924H24.396
		L24.098,38.076z"/>
	<path fill="#FFFFFF" d="M87.559,57.516c-0.248-0.131-0.428-0.283-0.555-0.473c-0.154-0.227-0.258-0.482-0.32-0.789
		c-0.078-0.383-0.119-0.787-0.119-1.199v-18.09h-10.9v19.156c0,1.432,0.135,2.785,0.402,4.021c0.293,1.363,0.854,2.566,1.664,3.574
		c0.824,1.029,1.943,1.834,3.328,2.395c1.326,0.535,3.004,0.805,4.99,0.805h16.055l0.811-9.205H88.646
		C88.051,57.711,87.725,57.605,87.559,57.516z"/>
	<path fill="#FFFFFF" d="M54.193,57.516c-0.248-0.131-0.428-0.283-0.555-0.473c-0.154-0.227-0.258-0.482-0.32-0.789
		c-0.08-0.385-0.119-0.789-0.119-1.199v-5.717h13.697V40.35H53.199v-3.385H42.297v19.156c0,1.422,0.137,2.773,0.404,4.021
		c0.293,1.361,0.854,2.564,1.662,3.574c0.824,1.027,1.943,1.832,3.33,2.395c1.326,0.535,3.004,0.805,4.99,0.805h15.508l0.811-9.205
		H55.281C54.686,57.711,54.359,57.604,54.193,57.516z"/>
	<path fill="#FFFFFF" d="M13.246,31.5c-0.547-2.27-0.975-4.152-1.346-5.924l-0.248-1.191H0l0.445,1.85
		c0.436,1.814,0.924,3.723,1.535,6.006l0.299,1.111h11.412L13.246,31.5z"/>
	<rect x="75.664" y="24.385" fill="#FFFFFF" width="10.9" height="8.967"/>
	<path fill="#FFFFFF" d="M27.148,25.561c-0.443,2.006-0.906,3.98-1.381,5.938l-0.447,1.854h10.363l0.299-1.111
		c0.541-2.012,1.064-4.016,1.553-5.998l0.457-1.857H27.408L27.148,25.561z"/>
	<path fill="#FFFFFF" d="M67.346,24.385h-8.861c0.596-0.527,1.223-1.145,1.871-1.838c0.77-0.826,1.533-1.693,2.271-2.58
		c0.729-0.877,1.424-1.76,2.063-2.623c0.629-0.852,1.166-1.629,1.594-2.307l1.451-2.301h-11.92l-0.342,1.023
		c-0.205,0.607-0.49,1.309-0.854,2.084c-0.373,0.801-0.793,1.637-1.248,2.482c-0.451,0.84-0.916,1.66-1.383,2.436
		c-0.469,0.777-0.887,1.438-1.256,1.984l-1.111,1.639h-7.324v8.967h25.838L67.346,24.385z"/>
	<path fill="#FFFFFF" d="M141.828,30.773c-1.51-1.459-3.277-2.623-5.258-3.461c-2.418-1.02-5.217-1.535-8.32-1.535
		c-3.176,0-6.045,0.529-8.525,1.574c-1.977,0.834-3.752,1.979-5.277,3.402l-2.781,2.598h32.828L141.828,30.773z"/>
	<path fill="#FFFFFF" d="M218.367,76.871c-1.031,0.094-2.01,0.207-2.906,0.334l-1.287,0.186v7.436h12.746l0.168-0.012l0.141,0.012
		l16.621-0.004l-1.465-2.305c-0.816-1.283-1.846-2.355-3.061-3.189c-1.443-0.988-3.148-1.721-5.068-2.176
		c-1.855-0.441-3.867-0.666-5.979-0.666c-1.105,0-2.225,0.014-3.359,0.041c-1.133,0.029-2.248,0.068-3.348,0.123
		C220.469,76.707,219.4,76.779,218.367,76.871z"/>
	<path fill="#FFFFFF" d="M187.395,119.02c3.176,0,6.043-0.531,8.525-1.576c2.502-1.057,4.641-2.564,6.357-4.484
		c1.707-1.908,3.02-4.219,3.9-6.867c0.869-2.607,1.309-5.51,1.309-8.625c0-2.895-0.391-5.617-1.16-8.096L206,88.316l-11.75-0.014
		l0.766,2.031c0.131,0.354,0.264,0.707,0.367,1.076c0.268,0.959,0.465,1.977,0.582,3.02c0.121,1.074,0.182,2.166,0.182,3.246
		c0,1.098-0.061,2.203-0.182,3.283c-0.119,1.057-0.314,2.088-0.584,3.064c-0.262,0.945-0.613,1.826-1.049,2.621
		c-0.406,0.748-0.922,1.406-1.529,1.953c-0.598,0.537-1.32,0.969-2.154,1.285s-1.828,0.477-2.953,0.477
		c-1.127,0-2.117-0.156-2.947-0.467s-1.529-0.725-2.131-1.268c-0.613-0.553-1.129-1.207-1.535-1.947
		c-0.436-0.793-0.789-1.662-1.047-2.582c-0.27-0.961-0.465-1.98-0.582-3.033c-0.121-1.078-0.182-2.166-0.182-3.234
		c0-1.084,0.061-2.184,0.182-3.271c0.117-1.063,0.314-2.098,0.582-3.074c0.111-0.402,0.25-0.787,0.395-1.166l0.77-2.029
		l-10.496-0.012l-1.059-0.039L169.24,89.4c-0.867,2.596-1.307,5.484-1.307,8.586c0,3.045,0.414,5.873,1.232,8.404
		c0.836,2.582,2.092,4.838,3.732,6.703c1.656,1.881,3.729,3.357,6.16,4.387C181.467,118.502,184.271,119.02,187.395,119.02z"/>
	<path fill="#FFFFFF" d="M154.775,77.867c-0.123,1.553-0.32,3.324-0.584,5.27l-0.23,1.701l10.086-0.002l0.223-1.234
		c0.352-1.951,0.637-3.723,0.869-5.41l0.234-1.705h-10.486L154.775,77.867z"/>
	<path fill="#FFFFFF" d="M126.92,83.162c-0.236-1.932-0.428-3.717-0.568-5.307l-0.121-1.369h-11.6l0.24,1.709
		c0.238,1.701,0.518,3.516,0.83,5.393l0.207,1.256h11.217L126.92,83.162z"/>
	<rect x="252.242" y="76.486" fill="#FFFFFF" width="10.9" height="8.334"/>
	<path fill="#FFFFFF" d="M153.119,89.865c-0.133,0.752-0.268,1.506-0.414,2.275c-0.492,2.584-1.045,5.205-1.643,7.791
		c-0.096,0.414-0.191,0.826-0.289,1.234l-2.514-12.918l-15.551-0.018l-2.828,12.816c-0.076-0.373-0.154-0.75-0.23-1.129
		c-0.514-2.559-0.994-5.164-1.426-7.746c-0.133-0.779-0.25-1.547-0.369-2.316l-0.252-1.633l-11.088-0.01l0.344,1.785
		c0.563,2.926,1.104,5.535,1.656,7.975c0.771,3.414,1.631,6.871,2.557,10.275c0.92,3.383,1.918,6.664,2.967,9.754l0.346,1.018
		h10.225l5.291-22.904l4.561,22.904h10.225l0.35-1.006c1.08-3.094,2.148-6.369,3.176-9.734c1.033-3.381,2-6.828,2.875-10.25
		c0.621-2.426,1.234-5.023,1.873-7.943l0.396-1.818l-9.953-0.012L153.119,89.865z"/>
	<polygon fill="#FFFFFF" points="135.299,76.486 133.455,84.842 147.594,84.84 145.971,76.486 	"/>
	<path fill="#FFFFFF" d="M185.443,67.148c1.666-0.137,4.201-0.686,5.666,0.412c1.877,1.406-0.088,4.064-0.887,5.521l-1.293,3.443
		c-0.305-0.01-0.598-0.039-0.906-0.039c-3.18,0-6.047,0.531-8.523,1.576c-2.373,0.998-4.434,2.43-6.129,4.25l-2.344,2.523
		l14.783-0.004l-0.109,0.291c-0.156,0.662-0.486,1.264,0.092,1.914c0.945,0.477,1.906,0.93,2.848,1.41
		c0.477,0.242,0.969,0.775,1.518,0.516c0.766-0.361,1.467-2.01,1.947-2.688c0.342-0.482,0.684-0.963,1.025-1.445l11.539-0.002
		l-2.23-2.498c-1.363-1.525-3.012-2.762-4.889-3.721c0.482-0.678,0.965-1.355,1.445-2.033c1.16-1.633,2.32-3.266,3.48-4.898
		c0.512-0.719,1.09-1.426,1.514-2.199c0.408-0.74,1.279-1.67,1.244-2.525c-0.033-0.83-0.51-1.377-1.162-1.834
		c-1.162-0.813-0.709-1.736-0.264-2.928c0.311-0.816,0.73-1.592,1.215-2.316c0.615-0.92,1.398-1.732,2.154-2.533
		c0.281-0.297,0.736-1.074,1.152-1.182c0.535-0.141,0.994,0.527,1.309,0.869c0.461,0.5,0.902,0.977,1.42,1.418
		c1.191,1.014,2.465,1.945,3.807,2.75l2.221,0.572c0,0,1.432,0.891,2.686,1.373c0.74,0.285,1.787-0.299,1.941-0.658
		c0.525-1.229-1.477-3.057-1.477-3.057c0.773-1.391-2.488-6.635-6.588-6.521c-0.277,0.006-0.529,0.145-0.529,0.145l-4.133-3.338
		c-0.592-1.596-0.809-3.117-2.26-4.195c-1.484-1.102-3.27-2.023-5.107-2.311c-1.004-0.176-1.396-0.053-1.879,0.18
		c-0.543,0.26-1.314-0.666-1.691-0.885c-1.223-0.703-4.926-0.805-5.145,1.201c-0.121,1.111,0.979,2.541,1.66,3.299
		c1.359,1.514,3.391,1.527,4.857,2.893c0.449,0.416,1.348,0.852,1.461,1.52c0.119,0.701-0.734,1.285-1.008,1.863
		c-0.301,0.635-0.508,1.371-1.371,1.02c-7.469-5.494-15.279-10.193-23.512-14.742c-0.145-0.08-0.074-1.271-0.082-1.5
		c-0.031-0.955-0.262-1.064-0.893-1.65c0,0,0.436-7.295,0.436-7.297c0.023-0.391,4.848,1.926,5.178,2.107
		c1.324,0.729,2.596,1.549,3.9,2.313c0.732,0.428,2.424,1.713,3.314,1.283c0.359-0.174,0.455-1.092,0.434-1.418
		c-0.045-0.656-0.391-1.299-0.748-1.834c-0.971-1.459-2.52-2.393-3.953-3.334c-4.082-2.684-8.271-5.164-12.576-7.473
		c-2.262-1.213-4.566-2.357-6.875-3.479c-0.807-0.168-1.922,0.088-2.174,0.877c-0.453,1.223,0.271,2.676,1.18,3.867
		c1.857,2.041,3.678,3.41,6.002,4.492c0.531,2.602,0.736,5.227,0.02,7.67c-0.277,0.256-0.914-0.303-1.391,0.074
		c-0.371,0.957-0.729,2.051-0.984,3.283c-3.527,1.301-7.725,1.504-11.98,1.633c-1.313,0.039-2.629,0.072-3.934,0.127
		c0,0-1.277,0.023-3.117,0.078c-0.09-0.326-0.168-0.66-0.27-0.979c-0.033-0.105-0.074-0.207-0.113-0.309l-0.385-1.123h-11.883
		l0.914,2.098c0.158,0.361,0.281,0.688,0.393,1.004c-0.621,0.084-1.123,0.178-1.459,0.279c-2.682,0.814-7.738,2.111-8.676,3.723
		c-0.936,1.611-0.902,2.576,1.24,4.465c1.914,1.691,7.947,3.859,9.207,4.301c-0.039,0.158-0.068,0.324-0.111,0.479
		c-0.26,0.945-0.611,1.826-1.045,2.621c-0.414,0.76-0.916,1.4-1.531,1.955c-0.596,0.535-1.32,0.967-2.154,1.283
		c-0.836,0.316-1.83,0.479-2.953,0.479c-1.127,0-2.117-0.158-2.947-0.469c-0.82-0.307-1.537-0.732-2.133-1.268
		c-0.609-0.549-1.125-1.203-1.535-1.949c-0.436-0.791-0.787-1.658-1.045-2.58c-0.27-0.965-0.467-1.984-0.582-3.031
		c-0.121-1.082-0.182-2.17-0.182-3.234c0-1.082,0.061-2.184,0.182-3.271c0.115-1.059,0.313-2.094,0.582-3.076
		c0.148-0.531,0.346-1.074,0.621-1.707l0.916-2.1h-11.682l-0.457,1.211c-0.068,0.168-0.137,0.338-0.195,0.516
		c-0.867,2.598-1.307,5.486-1.307,8.586c0,3.045,0.416,5.873,1.234,8.404c0.834,2.578,2.088,4.834,3.732,6.701
		c1.656,1.881,3.727,3.357,6.16,4.389c2.408,1.021,5.213,1.539,8.336,1.539c3.172,0,6.041-0.531,8.525-1.578
		c1.369-0.576,2.617-1.303,3.76-2.145c1.404,1.631,1.768,4.221,4.309,5.066c1.582,0.25,3.723,1.012,4.281-0.07l-1.053-2.002
		c1.914-0.666,4.295-0.955,7.178-0.514c0.992,0.15,2.141,0.879,3.066,1.258c1.023,0.418,2.135,1.098,3.215,1.303
		c2.182,0.414,4.775-0.756,6.875-1.295c3.881-0.357,7.789-0.785,11.682-0.953C181.457,67.295,183.449,67.313,185.443,67.148z
		 M144.615,62.402l-0.344-0.105c-0.102-0.369-0.594-0.701-0.99-1.018c1.016-1.313,1.871-2.783,2.549-4.406
		c0.895,0.295,2.123,1.092,1.895,0.908l1.004,0.717l0.176,2.805L144.615,62.402z M158.861,55c-2.373,0.141-4.891-0.188-7.131-0.998
		c-0.393-0.143-0.752-0.248-1.068-0.354c-0.979-0.33-1.563-0.674-1.488-2.152c0.133-2.6,0.359-5.725,3.334-6.293l11.842-0.844
		L158.861,55z M167.814,60.861l-2.225-2.098c3.992-3.732,5.818-9.072,8.846-13.33c6.713,3.496,14.008,7.326,19.215,11.787
		c-3.84,2.488-10.277,1.357-15.248,2.689C174.723,60.014,171.656,61.123,167.814,60.861z"/>
</g>
</svg>
